<svg width="800" height="800" viewBox="0 0 800 800" fill="none" xmlns="http://www.w3.org/2000/svg">
<g clip-path="url(#clip0_62_56)">
<path d="M401.159 700C525.11 700 628.59 614.378 625.951 553.912C625.951 553.912 626.391 545.527 621.552 532.728C616.713 519.928 611.874 514.632 611.874 514.632C594.277 492.123 561.176 478 547.647 478H251.592C238.063 478 198.803 493.006 183.846 525.225C168.889 557.443 174.714 571.786 187.858 594.958C201.002 618.131 277.209 700 401.159 700Z" fill="url(#paint0_linear_62_56)"/>
<path d="M400.5 397C482.382 397 549 330.382 549 248.5C549 166.618 482.382 100 400.5 100C318.617 100 252 166.618 252 248.5C252 330.382 318.617 397 400.5 397Z" fill="url(#paint1_linear_62_56)"/>
<path d="M464.429 422.119C465.112 422.803 465.112 425.081 464.429 428.955C463.973 432.829 463.175 437.044 462.036 441.602C461.125 445.931 460.099 450.033 458.96 453.906C458.049 457.552 457.251 459.831 456.567 460.742C454.517 460.742 452.238 460.742 449.731 460.742C447.453 460.514 445.288 460.4 443.237 460.4C440.731 460.4 438.338 460.286 436.06 460.059C435.376 470.085 434.578 479.427 433.667 488.086C432.756 496.517 431.844 503.923 430.933 510.303C430.021 516.455 429.224 521.354 428.54 525C427.856 528.874 427.173 530.811 426.489 530.811C424.666 531.038 422.729 530.241 420.679 528.418C418.628 526.595 416.691 524.43 414.868 521.924C413.045 519.189 411.336 516.341 409.741 513.379C408.374 510.417 407.576 507.91 407.349 505.859V458.35C400.513 458.122 394.019 457.78 387.866 457.324C379.207 456.868 372.144 456.413 366.675 455.957C361.206 455.273 356.877 454.704 353.687 454.248C350.724 453.792 348.56 453.451 347.192 453.223C346.053 452.767 345.483 452.539 345.483 452.539C343.66 452.083 342.065 450.83 340.698 448.779C339.331 446.501 338.192 443.994 337.28 441.26C336.369 438.525 335.685 435.791 335.229 433.057C335.002 430.094 335.116 427.702 335.571 425.879C348.104 394.889 358.358 370.166 366.333 351.709C374.536 333.252 381.03 319.124 385.815 309.326C391.512 297.933 395.841 290.186 398.804 286.084C401.31 283.122 404.842 280.729 409.399 278.906C414.185 277.083 418.97 275.83 423.755 275.146C428.54 274.463 432.756 274.235 436.401 274.463C440.275 274.463 442.554 274.919 443.237 275.83C444.832 277.425 445.516 279.932 445.288 283.35C445.288 286.768 445.288 290.983 445.288 295.996C445.288 302.832 445.06 311.035 444.604 320.605C444.377 330.176 443.921 340.544 443.237 351.709C442.782 362.646 442.212 374.154 441.528 386.23C440.845 398.079 440.047 409.928 439.136 421.777C446.427 421.549 452.352 421.436 456.909 421.436C461.466 421.436 463.973 421.663 464.429 422.119ZM365.308 425.537C371.232 425.081 377.84 424.626 385.132 424.17C392.651 423.714 400.057 423.258 407.349 422.803C407.349 408.219 407.463 393.636 407.69 379.053C407.918 364.469 408.26 351.367 408.716 339.746C400.968 354.785 393.221 370.052 385.474 385.547C377.954 400.814 371.232 414.144 365.308 425.537Z" fill="black"/>
</g>
<defs>
<linearGradient id="paint0_linear_62_56" x1="400.5" y1="700" x2="400.5" y2="478" gradientUnits="userSpaceOnUse">
<stop stop-color="#3A4784"/>
<stop offset="1" stop-color="#667EEA"/>
</linearGradient>
<linearGradient id="paint1_linear_62_56" x1="400.5" y1="100" x2="400.5" y2="397" gradientUnits="userSpaceOnUse">
<stop stop-color="#3A4784"/>
<stop offset="1" stop-color="#667EEA"/>
</linearGradient>
<clipPath id="clip0_62_56">
<rect width="600" height="600" fill="white" transform="translate(100 100)"/>
</clipPath>
</defs>
</svg>
