<svg width="800" height="800" viewBox="0 0 800 800" fill="none" xmlns="http://www.w3.org/2000/svg">
<g clip-path="url(#clip0_62_54)">
<path d="M401.159 700C525.11 700 628.59 614.378 625.951 553.912C625.951 553.912 626.391 545.527 621.552 532.728C616.713 519.928 611.874 514.632 611.874 514.632C594.277 492.123 561.176 478 547.647 478H251.592C238.063 478 198.803 493.006 183.846 525.225C168.889 557.443 174.714 571.786 187.858 594.958C201.002 618.131 277.209 700 401.159 700Z" fill="url(#paint0_linear_62_54)"/>
<path d="M400.5 397C482.382 397 549 330.382 549 248.5C549 166.618 482.382 100 400.5 100C318.617 100 252 166.618 252 248.5C252 330.382 318.617 397 400.5 397Z" fill="url(#paint1_linear_62_54)"/>
<path d="M408.716 436.475C406.437 432.829 403.703 429.98 400.513 427.93C397.55 425.651 394.474 424.056 391.284 423.145C388.094 422.005 384.904 421.436 381.714 421.436C378.752 421.208 376.245 421.208 374.194 421.436C371.916 421.891 369.865 420.866 368.042 418.359C366.219 415.853 364.852 413.005 363.94 409.814C363.257 406.396 362.915 403.092 362.915 399.902C363.143 396.484 364.054 394.206 365.649 393.066C368.384 390.788 372.257 388.167 377.271 385.205C382.511 382.243 387.524 379.053 392.31 375.635C397.323 371.989 401.652 368.001 405.298 363.672C408.944 359.342 410.767 354.671 410.767 349.658C410.767 342.822 410.197 336.67 409.058 331.201C408.146 325.505 407.007 320.605 405.64 316.504C404.272 312.402 402.791 309.212 401.196 306.934C399.829 304.427 398.804 302.946 398.12 302.49C397.437 301.807 396.183 301.579 394.36 301.807C392.537 301.807 390.601 302.035 388.55 302.49C386.499 302.718 384.562 303.174 382.739 303.857C381.144 304.313 380.233 304.655 380.005 304.883C379.549 305.339 379.093 308.187 378.638 313.428C378.182 318.441 377.498 324.023 376.587 330.176C375.903 336.328 375.106 342.025 374.194 347.266C373.283 352.507 372.144 355.469 370.776 356.152C368.042 357.52 364.966 356.494 361.548 353.076C358.358 349.43 355.396 345.101 352.661 340.088C351.294 337.581 349.927 334.277 348.56 330.176C347.42 326.074 346.395 321.973 345.483 317.871C344.8 313.542 344.23 309.554 343.774 305.908C343.319 302.262 343.319 299.414 343.774 297.363C344.002 295.54 346.851 293.148 352.319 290.186C357.788 286.995 364.738 284.033 373.169 281.299C381.6 278.337 390.942 275.944 401.196 274.121C411.45 272.298 421.476 271.615 431.274 272.07C434.465 272.298 437.199 274.121 439.478 277.539C441.984 280.957 443.921 285.4 445.288 290.869C446.883 296.11 448.022 302.148 448.706 308.984C449.618 315.82 450.073 322.77 450.073 329.834C449.618 337.581 447.795 345.443 444.604 353.418C441.87 360.254 437.427 367.773 431.274 375.977C425.35 384.18 416.919 392.155 405.981 399.902C418.286 401.497 427.629 404.574 434.009 409.131C440.389 413.688 445.06 418.587 448.022 423.828C451.44 429.753 453.149 436.361 453.149 443.652C452.694 450.716 451.554 458.122 449.731 465.869C447.909 473.389 445.858 480.452 443.579 487.061C441.3 493.669 439.022 499.365 436.743 504.15C434.465 508.936 432.869 511.784 431.958 512.695C431.047 513.835 428.312 515.544 423.755 517.822C419.425 520.101 414.412 522.38 408.716 524.658C403.247 526.937 397.778 528.874 392.31 530.469C386.841 532.292 382.739 533.317 380.005 533.545C377.271 533.545 374.308 531.836 371.118 528.418C367.928 525.228 364.966 521.126 362.231 516.113C359.725 511.1 357.446 505.859 355.396 500.391C353.573 494.922 352.547 490.137 352.319 486.035C351.864 481.934 351.522 477.946 351.294 474.072C351.294 469.971 351.408 466.439 351.636 463.477C352.091 460.514 352.775 458.122 353.687 456.299C354.598 454.476 355.965 453.564 357.788 453.564C359.155 453.564 360.75 454.248 362.573 455.615C364.624 456.982 366.675 458.691 368.726 460.742C370.776 462.793 372.713 464.958 374.536 467.236C376.587 469.515 378.296 471.68 379.663 473.73C380.347 475.098 381.486 477.604 383.081 481.25C384.676 484.668 386.385 488.2 388.208 491.846C390.031 495.264 391.854 498.34 393.677 501.074C395.728 503.809 397.664 505.176 399.487 505.176C401.082 505.176 402.563 503.809 403.931 501.074C405.298 498.34 406.437 494.922 407.349 490.82C408.26 486.491 409.058 481.82 409.741 476.807C410.425 471.566 410.881 466.439 411.108 461.426C411.336 457.78 411.564 454.818 411.792 452.539C412.02 450.033 412.02 447.868 411.792 446.045C411.792 444.222 411.45 442.627 410.767 441.26C410.311 439.893 409.627 438.298 408.716 436.475Z" fill="black"/>
</g>
<defs>
<linearGradient id="paint0_linear_62_54" x1="400.5" y1="700" x2="400.5" y2="478" gradientUnits="userSpaceOnUse">
<stop stop-color="#3A4784"/>
<stop offset="1" stop-color="#667EEA"/>
</linearGradient>
<linearGradient id="paint1_linear_62_54" x1="400.5" y1="100" x2="400.5" y2="397" gradientUnits="userSpaceOnUse">
<stop stop-color="#3A4784"/>
<stop offset="1" stop-color="#667EEA"/>
</linearGradient>
<clipPath id="clip0_62_54">
<rect width="600" height="600" fill="white" transform="translate(100 100)"/>
</clipPath>
</defs>
</svg>
