<svg width="800" height="800" viewBox="0 0 800 800" fill="none" xmlns="http://www.w3.org/2000/svg">
<g clip-path="url(#clip0_62_52)">
<path d="M401.159 701C525.11 701 628.59 615.378 625.951 554.912C625.951 554.912 626.391 546.527 621.552 533.728C616.713 520.928 611.874 515.632 611.874 515.632C594.277 493.123 561.176 479 547.647 479H251.592C238.063 479 198.803 494.006 183.846 526.225C168.889 558.443 174.714 572.786 187.858 595.958C201.002 619.131 277.209 701 401.159 701Z" fill="url(#paint0_linear_62_52)"/>
<path d="M400.5 398C482.382 398 549 331.382 549 249.5C549 167.618 482.382 101 400.5 101C318.617 101 252 167.618 252 249.5C252 331.382 318.617 398 400.5 398Z" fill="url(#paint1_linear_62_52)"/>
<path d="M385.815 494.213C397.437 493.074 407.235 492.162 415.21 491.479C423.185 490.567 429.565 489.883 434.351 489.428C439.364 488.744 442.896 488.402 444.946 488.402C447.225 488.402 448.592 488.516 449.048 488.744C449.959 489.883 449.959 492.162 449.048 495.58C448.136 498.77 446.769 502.302 444.946 506.176C443.123 510.049 441.073 513.809 438.794 517.455C436.743 521.101 435.034 523.607 433.667 524.975C433.211 525.43 431.388 525.772 428.198 526C425.008 526.456 421.021 526.798 416.235 527.025C411.678 527.253 406.551 527.481 400.854 527.709C395.386 527.937 390.145 528.051 385.132 528.051C380.119 528.279 375.789 528.393 372.144 528.393C368.498 528.393 366.105 528.279 364.966 528.051C363.371 527.823 361.776 526.911 360.181 525.316C358.813 523.493 357.446 521.557 356.079 519.506C354.94 517.227 353.914 514.835 353.003 512.328C352.091 509.822 351.522 507.543 351.294 505.492C351.066 504.809 351.636 502.302 353.003 497.973C354.37 493.415 355.965 487.947 357.788 481.566C359.839 475.186 362.118 468.35 364.624 461.059C367.131 453.539 369.523 446.361 371.802 439.525C374.308 432.689 376.473 426.651 378.296 421.41C380.119 415.941 381.372 412.182 382.056 410.131C385.701 399.877 389.119 389.737 392.31 379.711C395.728 369.457 398.576 360.229 400.854 352.025C403.361 343.594 405.184 336.531 406.323 330.834C407.463 324.91 407.576 321.264 406.665 319.896C405.981 318.985 404.045 319.099 400.854 320.238C397.892 321.15 394.132 322.859 389.575 325.365C385.246 327.644 380.575 330.264 375.562 333.227C370.776 336.189 366.105 339.037 361.548 341.771C357.218 344.506 353.459 346.898 350.269 348.949C347.078 350.772 345.142 351.684 344.458 351.684C343.319 351.911 342.407 350.43 341.724 347.24C341.268 344.05 341.04 340.404 341.04 336.303C341.04 332.201 341.268 328.214 341.724 324.34C342.179 320.238 342.863 317.39 343.774 315.795C344.23 314.656 345.939 312.719 348.901 309.984C352.091 307.25 355.965 304.174 360.522 300.756C365.08 297.338 370.093 293.806 375.562 290.16C381.03 286.514 386.385 283.324 391.626 280.59C397.095 277.855 402.108 275.691 406.665 274.096C411.45 272.501 415.438 271.931 418.628 272.387C420.679 272.842 423.641 274.551 427.515 277.514C431.616 280.248 435.604 283.438 439.478 287.084C443.351 290.502 446.769 294.034 449.731 297.68C452.922 301.098 454.744 303.49 455.2 304.857C455.428 305.997 454.631 309.643 452.808 315.795C451.213 321.719 448.82 329.239 445.63 338.354C442.668 347.24 439.136 357.266 435.034 368.432C430.933 379.369 426.603 390.535 422.046 401.928C417.716 413.321 413.387 424.486 409.058 435.424C404.956 446.361 401.196 456.16 397.778 464.818C394.36 473.249 391.512 480.199 389.233 485.668C387.183 490.909 386.043 493.757 385.815 494.213Z" fill="black"/>
</g>
<defs>
<linearGradient id="paint0_linear_62_52" x1="400.5" y1="701" x2="400.5" y2="479" gradientUnits="userSpaceOnUse">
<stop stop-color="#3A4784"/>
<stop offset="1" stop-color="#667EEA"/>
</linearGradient>
<linearGradient id="paint1_linear_62_52" x1="400.5" y1="101" x2="400.5" y2="398" gradientUnits="userSpaceOnUse">
<stop stop-color="#3A4784"/>
<stop offset="1" stop-color="#667EEA"/>
</linearGradient>
<clipPath id="clip0_62_52">
<rect width="600" height="600" fill="white" transform="translate(100 101)"/>
</clipPath>
</defs>
</svg>
