<svg width="800" height="800" viewBox="0 0 800 800" fill="none" xmlns="http://www.w3.org/2000/svg">
<g clip-path="url(#clip0_62_50)">
<path d="M401.159 700C525.11 700 628.59 614.378 625.951 553.912C625.951 553.912 626.391 545.527 621.552 532.728C616.713 519.928 611.874 514.632 611.874 514.632C594.277 492.123 561.176 478 547.647 478H251.592C238.063 478 198.803 493.006 183.846 525.225C168.889 557.443 174.714 571.786 187.858 594.958C201.002 618.131 277.209 700 401.159 700Z" fill="url(#paint0_linear_62_50)"/>
<path d="M400.5 397C482.382 397 549 330.382 549 248.5C549 166.618 482.382 100 400.5 100C318.617 100 252 166.618 252 248.5C252 330.382 318.617 397 400.5 397Z" fill="url(#paint1_linear_62_50)"/>
<path d="M427.344 270.703C428.255 271.387 428.825 275.602 429.053 283.35C429.508 290.869 429.622 300.667 429.395 312.744C429.395 324.821 429.167 338.493 428.711 353.76C428.255 368.799 427.686 384.18 427.002 399.902C426.318 415.625 425.407 431.12 424.268 446.387C423.356 461.426 422.445 474.87 421.533 486.719C420.622 498.34 419.596 507.796 418.457 515.088C417.546 522.38 416.634 526.139 415.723 526.367C414.128 526.823 412.305 526.139 410.254 524.316C408.203 522.493 406.266 520.329 404.443 517.822C402.62 515.316 400.911 512.581 399.316 509.619C397.949 506.657 397.152 504.15 396.924 502.1C395.329 475.212 394.076 451.628 393.164 431.348C392.48 411.068 391.911 393.978 391.455 380.078C390.999 363.9 390.771 349.772 390.771 337.695C387.809 341.569 385.075 344.759 382.568 347.266C380.29 349.772 378.695 351.139 377.783 351.367C376.416 351.367 374.365 350.114 371.631 347.607C369.124 345.101 366.618 342.139 364.111 338.721C361.833 335.303 359.896 331.885 358.301 328.467C356.706 325.049 356.136 322.542 356.592 320.947C356.82 319.808 358.187 317.985 360.693 315.479C363.2 312.744 366.162 309.782 369.58 306.592C373.226 303.402 376.986 300.212 380.859 297.021C384.961 293.831 388.721 291.097 392.139 288.818C394.873 286.768 398.063 284.603 401.709 282.324C405.355 279.818 408.887 277.539 412.305 275.488C415.723 273.438 418.799 271.956 421.533 271.045C424.268 269.906 426.204 269.792 427.344 270.703Z" fill="black"/>
</g>
<defs>
<linearGradient id="paint0_linear_62_50" x1="400.5" y1="700" x2="400.5" y2="478" gradientUnits="userSpaceOnUse">
<stop stop-color="#3A4784"/>
<stop offset="1" stop-color="#667EEA"/>
</linearGradient>
<linearGradient id="paint1_linear_62_50" x1="400.5" y1="100" x2="400.5" y2="397" gradientUnits="userSpaceOnUse">
<stop stop-color="#3A4784"/>
<stop offset="1" stop-color="#667EEA"/>
</linearGradient>
<clipPath id="clip0_62_50">
<rect width="600" height="600" fill="white" transform="translate(100 100)"/>
</clipPath>
</defs>
</svg>
